# Tiled2Unity generated file. Do not modify by hand.
# Wavefront file for 'Batalla2_mesh_0004.obj'

# Vertices (Count = 704)
v 0 -96 0
v -16 -96 0
v -16 -80 0
v 0 -80 0
v -16 -96 0
v -32 -96 0
v -32 -80 0
v -16 -80 0
v -32 -96 0
v -48 -96 0
v -48 -80 0
v -32 -80 0
v -48 -96 0
v -64 -96 0
v -64 -80 0
v -48 -80 0
v -64 -96 0
v -80 -96 0
v -80 -80 0
v -64 -80 0
v -80 -96 0
v -96 -96 0
v -96 -80 0
v -80 -80 0
v 0 -112 0
v -16 -112 0
v -16 -96 0
v 0 -96 0
v -16 -112 0
v -32 -112 0
v -32 -96 0
v -16 -96 0
v -32 -112 0
v -48 -112 0
v -48 -96 0
v -32 -96 0
v -48 -112 0
v -64 -112 0
v -64 -96 0
v -48 -96 0
v -64 -112 0
v -80 -112 0
v -80 -96 0
v -64 -96 0
v -80 -112 0
v -96 -112 0
v -96 -96 0
v -80 -96 0
v 0 -128 0
v -16 -128 0
v -16 -112 0
v 0 -112 0
v -16 -128 0
v -32 -128 0
v -32 -112 0
v -16 -112 0
v -32 -128 0
v -48 -128 0
v -48 -112 0
v -32 -112 0
v -48 -128 0
v -64 -128 0
v -64 -112 0
v -48 -112 0
v -64 -128 0
v -80 -128 0
v -80 -112 0
v -64 -112 0
v -80 -128 0
v -96 -128 0
v -96 -112 0
v -80 -112 0
v 0 -144 0
v -16 -144 0
v -16 -128 0
v 0 -128 0
v -16 -144 0
v -32 -144 0
v -32 -128 0
v -16 -128 0
v -32 -144 0
v -48 -144 0
v -48 -128 0
v -32 -128 0
v -48 -144 0
v -64 -144 0
v -64 -128 0
v -48 -128 0
v -64 -144 0
v -80 -144 0
v -80 -128 0
v -64 -128 0
v -80 -144 0
v -96 -144 0
v -96 -128 0
v -80 -128 0
v 0 -160 0
v -16 -160 0
v -16 -144 0
v 0 -144 0
v -16 -160 0
v -32 -160 0
v -32 -144 0
v -16 -144 0
v -32 -160 0
v -48 -160 0
v -48 -144 0
v -32 -144 0
v -48 -160 0
v -64 -160 0
v -64 -144 0
v -48 -144 0
v -64 -160 0
v -80 -160 0
v -80 -144 0
v -64 -144 0
v -80 -160 0
v -96 -160 0
v -96 -144 0
v -80 -144 0
v -336 -240 0
v -352 -240 0
v -352 -224 0
v -336 -224 0
v -352 -240 0
v -368 -240 0
v -368 -224 0
v -352 -224 0
v -368 -240 0
v -384 -240 0
v -384 -224 0
v -368 -224 0
v -384 -240 0
v -400 -240 0
v -400 -224 0
v -384 -224 0
v -16 -256 0
v -32 -256 0
v -32 -240 0
v -16 -240 0
v -336 -256 0
v -352 -256 0
v -352 -240 0
v -336 -240 0
v -352 -256 0
v -368 -256 0
v -368 -240 0
v -352 -240 0
v -368 -256 0
v -384 -256 0
v -384 -240 0
v -368 -240 0
v -384 -256 0
v -400 -256 0
v -400 -240 0
v -384 -240 0
v -336 -272 0
v -352 -272 0
v -352 -256 0
v -336 -256 0
v -352 -272 0
v -368 -272 0
v -368 -256 0
v -352 -256 0
v -368 -272 0
v -384 -272 0
v -384 -256 0
v -368 -256 0
v -384 -272 0
v -400 -272 0
v -400 -256 0
v -384 -256 0
v -64 -288 0
v -80 -288 0
v -80 -272 0
v -64 -272 0
v -336 -288 0
v -352 -288 0
v -352 -272 0
v -336 -272 0
v -352 -288 0
v -368 -288 0
v -368 -272 0
v -352 -272 0
v -368 -288 0
v -384 -288 0
v -384 -272 0
v -368 -272 0
v -384 -288 0
v -400 -288 0
v -400 -272 0
v -384 -272 0
v -64 -304 0
v -80 -304 0
v -80 -288 0
v -64 -288 0
v -336 -304 0
v -352 -304 0
v -352 -288 0
v -336 -288 0
v -352 -304 0
v -368 -304 0
v -368 -288 0
v -352 -288 0
v -368 -304 0
v -384 -304 0
v -384 -288 0
v -368 -288 0
v -384 -304 0
v -400 -304 0
v -400 -288 0
v -384 -288 0
v -336 -336 0
v -352 -336 0
v -352 -320 0
v -336 -320 0
v -352 -336 0
v -368 -336 0
v -368 -320 0
v -352 -320 0
v -32 -368 0
v -48 -368 0
v -48 -352 0
v -32 -352 0
v -16 -400 0
v -32 -400 0
v -32 -384 0
v -16 -384 0
v -32 -400 0
v -48 -400 0
v -48 -384 0
v -32 -384 0
v -48 -400 0
v -64 -400 0
v -64 -384 0
v -48 -384 0
v -448 -400 0
v -464 -400 0
v -464 -384 0
v -448 -384 0
v -464 -400 0
v -480 -400 0
v -480 -384 0
v -464 -384 0
v -480 -400 0
v -496 -400 0
v -496 -384 0
v -480 -384 0
v -16 -416 0
v -32 -416 0
v -32 -400 0
v -16 -400 0
v -32 -416 0
v -48 -416 0
v -48 -400 0
v -32 -400 0
v -48 -416 0
v -64 -416 0
v -64 -400 0
v -48 -400 0
v -64 -416 0
v -80 -416 0
v -80 -400 0
v -64 -400 0
v -80 -416 0
v -96 -416 0
v -96 -400 0
v -80 -400 0
v -96 -416 0
v -112 -416 0
v -112 -400 0
v -96 -400 0
v -128 -416 0
v -144 -416 0
v -144 -400 0
v -128 -400 0
v -144 -416 0
v -160 -416 0
v -160 -400 0
v -144 -400 0
v -160 -416 0
v -176 -416 0
v -176 -400 0
v -160 -400 0
v -176 -416 0
v -192 -416 0
v -192 -400 0
v -176 -400 0
v -192 -416 0
v -208 -416 0
v -208 -400 0
v -192 -400 0
v -208 -416 0
v -224 -416 0
v -224 -400 0
v -208 -400 0
v -240 -416 0
v -256 -416 0
v -256 -400 0
v -240 -400 0
v -256 -416 0
v -272 -416 0
v -272 -400 0
v -256 -400 0
v -272 -416 0
v -288 -416 0
v -288 -400 0
v -272 -400 0
v -304 -416 0
v -320 -416 0
v -320 -400 0
v -304 -400 0
v -320 -416 0
v -336 -416 0
v -336 -400 0
v -320 -400 0
v -336 -416 0
v -352 -416 0
v -352 -400 0
v -336 -400 0
v -384 -416 0
v -400 -416 0
v -400 -400 0
v -384 -400 0
v -400 -416 0
v -416 -416 0
v -416 -400 0
v -400 -400 0
v -416 -416 0
v -432 -416 0
v -432 -400 0
v -416 -400 0
v -448 -416 0
v -464 -416 0
v -464 -400 0
v -448 -400 0
v -464 -416 0
v -480 -416 0
v -480 -400 0
v -464 -400 0
v -480 -416 0
v -496 -416 0
v -496 -400 0
v -480 -400 0
v -16 -432 0
v -32 -432 0
v -32 -416 0
v -16 -416 0
v -32 -432 0
v -48 -432 0
v -48 -416 0
v -32 -416 0
v -48 -432 0
v -64 -432 0
v -64 -416 0
v -48 -416 0
v -64 -432 0
v -80 -432 0
v -80 -416 0
v -64 -416 0
v -80 -432 0
v -96 -432 0
v -96 -416 0
v -80 -416 0
v -96 -432 0
v -112 -432 0
v -112 -416 0
v -96 -416 0
v -128 -432 0
v -144 -432 0
v -144 -416 0
v -128 -416 0
v -144 -432 0
v -160 -432 0
v -160 -416 0
v -144 -416 0
v -160 -432 0
v -176 -432 0
v -176 -416 0
v -160 -416 0
v -176 -432 0
v -192 -432 0
v -192 -416 0
v -176 -416 0
v -192 -432 0
v -208 -432 0
v -208 -416 0
v -192 -416 0
v -208 -432 0
v -224 -432 0
v -224 -416 0
v -208 -416 0
v -240 -432 0
v -256 -432 0
v -256 -416 0
v -240 -416 0
v -256 -432 0
v -272 -432 0
v -272 -416 0
v -256 -416 0
v -272 -432 0
v -288 -432 0
v -288 -416 0
v -272 -416 0
v -304 -432 0
v -320 -432 0
v -320 -416 0
v -304 -416 0
v -320 -432 0
v -336 -432 0
v -336 -416 0
v -320 -416 0
v -336 -432 0
v -352 -432 0
v -352 -416 0
v -336 -416 0
v -384 -432 0
v -400 -432 0
v -400 -416 0
v -384 -416 0
v -400 -432 0
v -416 -432 0
v -416 -416 0
v -400 -416 0
v -416 -432 0
v -432 -432 0
v -432 -416 0
v -416 -416 0
v -448 -432 0
v -464 -432 0
v -464 -416 0
v -448 -416 0
v -464 -432 0
v -480 -432 0
v -480 -416 0
v -464 -416 0
v -480 -432 0
v -496 -432 0
v -496 -416 0
v -480 -416 0
v -16 -448 0
v -32 -448 0
v -32 -432 0
v -16 -432 0
v -32 -448 0
v -48 -448 0
v -48 -432 0
v -32 -432 0
v -48 -448 0
v -64 -448 0
v -64 -432 0
v -48 -432 0
v -64 -448 0
v -80 -448 0
v -80 -432 0
v -64 -432 0
v -80 -448 0
v -96 -448 0
v -96 -432 0
v -80 -432 0
v -96 -448 0
v -112 -448 0
v -112 -432 0
v -96 -432 0
v -128 -448 0
v -144 -448 0
v -144 -432 0
v -128 -432 0
v -144 -448 0
v -160 -448 0
v -160 -432 0
v -144 -432 0
v -160 -448 0
v -176 -448 0
v -176 -432 0
v -160 -432 0
v -176 -448 0
v -192 -448 0
v -192 -432 0
v -176 -432 0
v -192 -448 0
v -208 -448 0
v -208 -432 0
v -192 -432 0
v -208 -448 0
v -224 -448 0
v -224 -432 0
v -208 -432 0
v -240 -448 0
v -256 -448 0
v -256 -432 0
v -240 -432 0
v -256 -448 0
v -272 -448 0
v -272 -432 0
v -256 -432 0
v -272 -448 0
v -288 -448 0
v -288 -432 0
v -272 -432 0
v -304 -448 0
v -320 -448 0
v -320 -432 0
v -304 -432 0
v -320 -448 0
v -336 -448 0
v -336 -432 0
v -320 -432 0
v -336 -448 0
v -352 -448 0
v -352 -432 0
v -336 -432 0
v -384 -448 0
v -400 -448 0
v -400 -432 0
v -384 -432 0
v -400 -448 0
v -416 -448 0
v -416 -432 0
v -400 -432 0
v -416 -448 0
v -432 -448 0
v -432 -432 0
v -416 -432 0
v -448 -448 0
v -464 -448 0
v -464 -432 0
v -448 -432 0
v -464 -448 0
v -480 -448 0
v -480 -432 0
v -464 -432 0
v -480 -448 0
v -496 -448 0
v -496 -432 0
v -480 -432 0
v -16 -464 0
v -32 -464 0
v -32 -448 0
v -16 -448 0
v -32 -464 0
v -48 -464 0
v -48 -448 0
v -32 -448 0
v -48 -464 0
v -64 -464 0
v -64 -448 0
v -48 -448 0
v -64 -464 0
v -80 -464 0
v -80 -448 0
v -64 -448 0
v -80 -464 0
v -96 -464 0
v -96 -448 0
v -80 -448 0
v -96 -464 0
v -112 -464 0
v -112 -448 0
v -96 -448 0
v -128 -464 0
v -144 -464 0
v -144 -448 0
v -128 -448 0
v -144 -464 0
v -160 -464 0
v -160 -448 0
v -144 -448 0
v -160 -464 0
v -176 -464 0
v -176 -448 0
v -160 -448 0
v -176 -464 0
v -192 -464 0
v -192 -448 0
v -176 -448 0
v -192 -464 0
v -208 -464 0
v -208 -448 0
v -192 -448 0
v -208 -464 0
v -224 -464 0
v -224 -448 0
v -208 -448 0
v -240 -464 0
v -256 -464 0
v -256 -448 0
v -240 -448 0
v -256 -464 0
v -272 -464 0
v -272 -448 0
v -256 -448 0
v -272 -464 0
v -288 -464 0
v -288 -448 0
v -272 -448 0
v -304 -464 0
v -320 -464 0
v -320 -448 0
v -304 -448 0
v -320 -464 0
v -336 -464 0
v -336 -448 0
v -320 -448 0
v -336 -464 0
v -352 -464 0
v -352 -448 0
v -336 -448 0
v -384 -464 0
v -400 -464 0
v -400 -448 0
v -384 -448 0
v -400 -464 0
v -416 -464 0
v -416 -448 0
v -400 -448 0
v -416 -464 0
v -432 -464 0
v -432 -448 0
v -416 -448 0
v -448 -464 0
v -464 -464 0
v -464 -448 0
v -448 -448 0
v -464 -464 0
v -480 -464 0
v -480 -448 0
v -464 -448 0
v -480 -464 0
v -496 -464 0
v -496 -448 0
v -480 -448 0
v -64 -480 0
v -80 -480 0
v -80 -464 0
v -64 -464 0
v -80 -480 0
v -96 -480 0
v -96 -464 0
v -80 -464 0
v -96 -480 0
v -112 -480 0
v -112 -464 0
v -96 -464 0
v -128 -480 0
v -144 -480 0
v -144 -464 0
v -128 -464 0
v -144 -480 0
v -160 -480 0
v -160 -464 0
v -144 -464 0
v -160 -480 0
v -176 -480 0
v -176 -464 0
v -160 -464 0
v -176 -480 0
v -192 -480 0
v -192 -464 0
v -176 -464 0
v -192 -480 0
v -208 -480 0
v -208 -464 0
v -192 -464 0
v -208 -480 0
v -224 -480 0
v -224 -464 0
v -208 -464 0
v -240 -480 0
v -256 -480 0
v -256 -464 0
v -240 -464 0
v -256 -480 0
v -272 -480 0
v -272 -464 0
v -256 -464 0
v -272 -480 0
v -288 -480 0
v -288 -464 0
v -272 -464 0
v -304 -480 0
v -320 -480 0
v -320 -464 0
v -304 -464 0
v -320 -480 0
v -336 -480 0
v -336 -464 0
v -320 -464 0
v -336 -480 0
v -352 -480 0
v -352 -464 0
v -336 -464 0
v -384 -480 0
v -400 -480 0
v -400 -464 0
v -384 -464 0
v -400 -480 0
v -416 -480 0
v -416 -464 0
v -400 -464 0
v -416 -480 0
v -432 -480 0
v -432 -464 0
v -416 -464 0

# Texture cooridinates (Count = 64)
vt 0.28125 0.65625
vt 0.3125 0.65625
vt 0.3125 0.6875
vt 0.28125 0.6875
vt 0.34375 0.65625
vt 0.34375 0.6875
vt 0.375 0.65625
vt 0.375 0.6875
vt 0.28125 0.625
vt 0.3125 0.625
vt 0.34375 0.625
vt 0.375 0.625
vt 0.28125 0.59375
vt 0.3125 0.59375
vt 0.34375 0.59375
vt 0.375 0.59375
vt 0.28125 0.5625
vt 0.3125 0.5625
vt 0.34375 0.5625
vt 0.375 0.5625
vt 0.28125 0.53125
vt 0.3125 0.53125
vt 0.34375 0.53125
vt 0.375 0.53125
vt 0.21875 0.9375
vt 0.25 0.9375
vt 0.25 0.96875
vt 0.21875 0.96875
vt 0.28125 0.9375
vt 0.28125 0.96875
vt 0.3125 0.9375
vt 0.3125 0.96875
vt 0.34375 0.9375
vt 0.34375 0.96875
vt 0.03125 0.96875
vt 0.0625 0.96875
vt 0.0625 1
vt 0.03125 1
vt 0.21875 0.90625
vt 0.25 0.90625
vt 0.28125 0.90625
vt 0.3125 0.90625
vt 0.34375 0.90625
vt 0.21875 0.875
vt 0.25 0.875
vt 0.28125 0.875
vt 0.3125 0.875
vt 0.34375 0.875
vt 0.21875 0.84375
vt 0.25 0.84375
vt 0.28125 0.84375
vt 0.3125 0.84375
vt 0.34375 0.84375
vt 0.21875 0.8125
vt 0.25 0.8125
vt 0.28125 0.8125
vt 0.3125 0.8125
vt 0.34375 0.8125
vt 0 0.78125
vt 0.03125 0.78125
vt 0.03125 0.8125
vt 0 0.8125
vt 0.0625 0.78125
vt 0.0625 0.8125

# Normal
vn 0 0 -1

# Mesh description
g Batalla2_mesh_0004

# Faces
f 1/1/1 2/2/1 3/3/1 4/4/1
f 5/2/1 6/5/1 7/6/1 8/3/1
f 9/5/1 10/7/1 11/8/1 12/6/1
f 13/1/1 14/2/1 15/3/1 16/4/1
f 17/2/1 18/5/1 19/6/1 20/3/1
f 21/5/1 22/7/1 23/8/1 24/6/1
f 25/9/1 26/10/1 27/2/1 28/1/1
f 29/10/1 30/11/1 31/5/1 32/2/1
f 33/11/1 34/12/1 35/7/1 36/5/1
f 37/9/1 38/10/1 39/2/1 40/1/1
f 41/10/1 42/11/1 43/5/1 44/2/1
f 45/11/1 46/12/1 47/7/1 48/5/1
f 49/13/1 50/14/1 51/10/1 52/9/1
f 53/14/1 54/15/1 55/11/1 56/10/1
f 57/15/1 58/16/1 59/12/1 60/11/1
f 61/13/1 62/14/1 63/10/1 64/9/1
f 65/14/1 66/15/1 67/11/1 68/10/1
f 69/15/1 70/16/1 71/12/1 72/11/1
f 73/17/1 74/18/1 75/14/1 76/13/1
f 77/18/1 78/19/1 79/15/1 80/14/1
f 81/19/1 82/20/1 83/16/1 84/15/1
f 85/17/1 86/18/1 87/14/1 88/13/1
f 89/18/1 90/19/1 91/15/1 92/14/1
f 93/19/1 94/20/1 95/16/1 96/15/1
f 97/21/1 98/22/1 99/18/1 100/17/1
f 101/22/1 102/23/1 103/19/1 104/18/1
f 105/23/1 106/24/1 107/20/1 108/19/1
f 109/21/1 110/22/1 111/18/1 112/17/1
f 113/22/1 114/23/1 115/19/1 116/18/1
f 117/23/1 118/24/1 119/20/1 120/19/1
f 121/25/1 122/26/1 123/27/1 124/28/1
f 125/26/1 126/29/1 127/30/1 128/27/1
f 129/29/1 130/31/1 131/32/1 132/30/1
f 133/31/1 134/33/1 135/34/1 136/32/1
f 137/35/1 138/36/1 139/37/1 140/38/1
f 141/39/1 142/40/1 143/26/1 144/25/1
f 145/40/1 146/41/1 147/29/1 148/26/1
f 149/41/1 150/42/1 151/31/1 152/29/1
f 153/42/1 154/43/1 155/33/1 156/31/1
f 157/44/1 158/45/1 159/40/1 160/39/1
f 161/45/1 162/46/1 163/41/1 164/40/1
f 165/46/1 166/47/1 167/42/1 168/41/1
f 169/47/1 170/48/1 171/43/1 172/42/1
f 173/35/1 174/36/1 175/37/1 176/38/1
f 177/49/1 178/50/1 179/45/1 180/44/1
f 181/50/1 182/51/1 183/46/1 184/45/1
f 185/51/1 186/52/1 187/47/1 188/46/1
f 189/52/1 190/53/1 191/48/1 192/47/1
f 193/35/1 194/36/1 195/37/1 196/38/1
f 197/54/1 198/55/1 199/50/1 200/49/1
f 201/55/1 202/56/1 203/51/1 204/50/1
f 205/56/1 206/57/1 207/52/1 208/51/1
f 209/57/1 210/58/1 211/53/1 212/52/1
f 213/59/1 214/60/1 215/61/1 216/62/1
f 217/60/1 218/63/1 219/64/1 220/61/1
f 221/35/1 222/36/1 223/37/1 224/38/1
f 225/1/1 226/2/1 227/3/1 228/4/1
f 229/2/1 230/5/1 231/6/1 232/3/1
f 233/5/1 234/7/1 235/8/1 236/6/1
f 237/1/1 238/2/1 239/3/1 240/4/1
f 241/2/1 242/5/1 243/6/1 244/3/1
f 245/5/1 246/7/1 247/8/1 248/6/1
f 249/9/1 250/10/1 251/2/1 252/1/1
f 253/10/1 254/11/1 255/5/1 256/2/1
f 257/11/1 258/12/1 259/7/1 260/5/1
f 261/1/1 262/2/1 263/3/1 264/4/1
f 265/2/1 266/5/1 267/6/1 268/3/1
f 269/5/1 270/7/1 271/8/1 272/6/1
f 273/1/1 274/2/1 275/3/1 276/4/1
f 277/2/1 278/5/1 279/6/1 280/3/1
f 281/5/1 282/7/1 283/8/1 284/6/1
f 285/1/1 286/2/1 287/3/1 288/4/1
f 289/2/1 290/5/1 291/6/1 292/3/1
f 293/5/1 294/7/1 295/8/1 296/6/1
f 297/1/1 298/2/1 299/3/1 300/4/1
f 301/2/1 302/5/1 303/6/1 304/3/1
f 305/5/1 306/7/1 307/8/1 308/6/1
f 309/1/1 310/2/1 311/3/1 312/4/1
f 313/2/1 314/5/1 315/6/1 316/3/1
f 317/5/1 318/7/1 319/8/1 320/6/1
f 321/1/1 322/2/1 323/3/1 324/4/1
f 325/2/1 326/5/1 327/6/1 328/3/1
f 329/5/1 330/7/1 331/8/1 332/6/1
f 333/9/1 334/10/1 335/2/1 336/1/1
f 337/10/1 338/11/1 339/5/1 340/2/1
f 341/11/1 342/12/1 343/7/1 344/5/1
f 345/13/1 346/14/1 347/10/1 348/9/1
f 349/14/1 350/15/1 351/11/1 352/10/1
f 353/15/1 354/16/1 355/12/1 356/11/1
f 357/9/1 358/10/1 359/2/1 360/1/1
f 361/10/1 362/11/1 363/5/1 364/2/1
f 365/11/1 366/12/1 367/7/1 368/5/1
f 369/9/1 370/10/1 371/2/1 372/1/1
f 373/10/1 374/11/1 375/5/1 376/2/1
f 377/11/1 378/12/1 379/7/1 380/5/1
f 381/9/1 382/10/1 383/2/1 384/1/1
f 385/10/1 386/11/1 387/5/1 388/2/1
f 389/11/1 390/12/1 391/7/1 392/5/1
f 393/9/1 394/10/1 395/2/1 396/1/1
f 397/10/1 398/11/1 399/5/1 400/2/1
f 401/11/1 402/12/1 403/7/1 404/5/1
f 405/9/1 406/10/1 407/2/1 408/1/1
f 409/10/1 410/11/1 411/5/1 412/2/1
f 413/11/1 414/12/1 415/7/1 416/5/1
f 417/9/1 418/10/1 419/2/1 420/1/1
f 421/10/1 422/11/1 423/5/1 424/2/1
f 425/11/1 426/12/1 427/7/1 428/5/1
f 429/13/1 430/14/1 431/10/1 432/9/1
f 433/14/1 434/15/1 435/11/1 436/10/1
f 437/15/1 438/16/1 439/12/1 440/11/1
f 441/17/1 442/18/1 443/14/1 444/13/1
f 445/18/1 446/19/1 447/15/1 448/14/1
f 449/19/1 450/20/1 451/16/1 452/15/1
f 453/13/1 454/14/1 455/10/1 456/9/1
f 457/14/1 458/15/1 459/11/1 460/10/1
f 461/15/1 462/16/1 463/12/1 464/11/1
f 465/13/1 466/14/1 467/10/1 468/9/1
f 469/14/1 470/15/1 471/11/1 472/10/1
f 473/15/1 474/16/1 475/12/1 476/11/1
f 477/13/1 478/14/1 479/10/1 480/9/1
f 481/14/1 482/15/1 483/11/1 484/10/1
f 485/15/1 486/16/1 487/12/1 488/11/1
f 489/13/1 490/14/1 491/10/1 492/9/1
f 493/14/1 494/15/1 495/11/1 496/10/1
f 497/15/1 498/16/1 499/12/1 500/11/1
f 501/13/1 502/14/1 503/10/1 504/9/1
f 505/14/1 506/15/1 507/11/1 508/10/1
f 509/15/1 510/16/1 511/12/1 512/11/1
f 513/13/1 514/14/1 515/10/1 516/9/1
f 517/14/1 518/15/1 519/11/1 520/10/1
f 521/15/1 522/16/1 523/12/1 524/11/1
f 525/17/1 526/18/1 527/14/1 528/13/1
f 529/18/1 530/19/1 531/15/1 532/14/1
f 533/19/1 534/20/1 535/16/1 536/15/1
f 537/21/1 538/22/1 539/18/1 540/17/1
f 541/22/1 542/23/1 543/19/1 544/18/1
f 545/23/1 546/24/1 547/20/1 548/19/1
f 549/17/1 550/18/1 551/14/1 552/13/1
f 553/18/1 554/19/1 555/15/1 556/14/1
f 557/19/1 558/20/1 559/16/1 560/15/1
f 561/17/1 562/18/1 563/14/1 564/13/1
f 565/18/1 566/19/1 567/15/1 568/14/1
f 569/19/1 570/20/1 571/16/1 572/15/1
f 573/17/1 574/18/1 575/14/1 576/13/1
f 577/18/1 578/19/1 579/15/1 580/14/1
f 581/19/1 582/20/1 583/16/1 584/15/1
f 585/17/1 586/18/1 587/14/1 588/13/1
f 589/18/1 590/19/1 591/15/1 592/14/1
f 593/19/1 594/20/1 595/16/1 596/15/1
f 597/17/1 598/18/1 599/14/1 600/13/1
f 601/18/1 602/19/1 603/15/1 604/14/1
f 605/19/1 606/20/1 607/16/1 608/15/1
f 609/17/1 610/18/1 611/14/1 612/13/1
f 613/18/1 614/19/1 615/15/1 616/14/1
f 617/19/1 618/20/1 619/16/1 620/15/1
f 621/21/1 622/22/1 623/18/1 624/17/1
f 625/22/1 626/23/1 627/19/1 628/18/1
f 629/23/1 630/24/1 631/20/1 632/19/1
f 633/21/1 634/22/1 635/18/1 636/17/1
f 637/22/1 638/23/1 639/19/1 640/18/1
f 641/23/1 642/24/1 643/20/1 644/19/1
f 645/21/1 646/22/1 647/18/1 648/17/1
f 649/22/1 650/23/1 651/19/1 652/18/1
f 653/23/1 654/24/1 655/20/1 656/19/1
f 657/21/1 658/22/1 659/18/1 660/17/1
f 661/22/1 662/23/1 663/19/1 664/18/1
f 665/23/1 666/24/1 667/20/1 668/19/1
f 669/21/1 670/22/1 671/18/1 672/17/1
f 673/22/1 674/23/1 675/19/1 676/18/1
f 677/23/1 678/24/1 679/20/1 680/19/1
f 681/21/1 682/22/1 683/18/1 684/17/1
f 685/22/1 686/23/1 687/19/1 688/18/1
f 689/23/1 690/24/1 691/20/1 692/19/1
f 693/21/1 694/22/1 695/18/1 696/17/1
f 697/22/1 698/23/1 699/19/1 700/18/1
f 701/23/1 702/24/1 703/20/1 704/19/1

