# Tiled2Unity generated file. Do not modify by hand.
# Wavefront file for 'Batalla3_mesh_0008.obj'

# Vertices (Count = 140)
v -224 -128 0
v -240 -128 0
v -240 -112 0
v -224 -112 0
v -240 -128 0
v -256 -128 0
v -256 -112 0
v -240 -112 0
v -256 -128 0
v -272 -128 0
v -272 -112 0
v -256 -112 0
v -320 -128 0
v -336 -128 0
v -336 -112 0
v -320 -112 0
v -336 -128 0
v -352 -128 0
v -352 -112 0
v -336 -112 0
v -352 -128 0
v -368 -128 0
v -368 -112 0
v -352 -112 0
v -640 -128 0
v -656 -128 0
v -656 -112 0
v -640 -112 0
v -656 -128 0
v -672 -128 0
v -672 -112 0
v -656 -112 0
v -672 -128 0
v -688 -128 0
v -688 -112 0
v -672 -112 0
v -688 -128 0
v -704 -128 0
v -704 -112 0
v -688 -112 0
v -704 -128 0
v -720 -128 0
v -720 -112 0
v -704 -112 0
v -720 -128 0
v -736 -128 0
v -736 -112 0
v -720 -112 0
v -736 -128 0
v -752 -128 0
v -752 -112 0
v -736 -112 0
v -752 -128 0
v -768 -128 0
v -768 -112 0
v -752 -112 0
v -768 -128 0
v -784 -128 0
v -784 -112 0
v -768 -112 0
v -784 -128 0
v -800 -128 0
v -800 -112 0
v -784 -112 0
v -688 -144 0
v -704 -144 0
v -704 -128 0
v -688 -128 0
v -688 -160 0
v -704 -160 0
v -704 -144 0
v -688 -144 0
v -784 -176 0
v -800 -176 0
v -800 -160 0
v -784 -160 0
v -688 -336 0
v -704 -336 0
v -704 -320 0
v -688 -320 0
v -704 -384 0
v -720 -384 0
v -720 -368 0
v -704 -368 0
v -256 -432 0
v -272 -432 0
v -272 -416 0
v -256 -416 0
v -272 -432 0
v -288 -432 0
v -288 -416 0
v -272 -416 0
v -288 -432 0
v -304 -432 0
v -304 -416 0
v -288 -416 0
v -304 -432 0
v -320 -432 0
v -320 -416 0
v -304 -416 0
v -320 -432 0
v -336 -432 0
v -336 -416 0
v -320 -416 0
v -336 -432 0
v -352 -432 0
v -352 -416 0
v -336 -416 0
v -352 -432 0
v -368 -432 0
v -368 -416 0
v -352 -416 0
v -368 -432 0
v -384 -432 0
v -384 -416 0
v -368 -416 0
v -576 -432 0
v -592 -432 0
v -592 -416 0
v -576 -416 0
v -592 -432 0
v -608 -432 0
v -608 -416 0
v -592 -416 0
v -608 -432 0
v -624 -432 0
v -624 -416 0
v -608 -416 0
v -640 -432 0
v -656 -432 0
v -656 -416 0
v -640 -416 0
v -656 -432 0
v -672 -432 0
v -672 -416 0
v -656 -416 0
v -672 -432 0
v -688 -432 0
v -688 -416 0
v -672 -416 0

# Texture cooridinates (Count = 14)
vt 0.28125 0.6875
vt 0.3125 0.6875
vt 0.3125 0.71875
vt 0.28125 0.71875
vt 0.125 0.6875
vt 0.15625 0.6875
vt 0.15625 0.71875
vt 0.125 0.71875
vt 0.03125 0.96875
vt 0.0625 0.96875
vt 0.0625 1
vt 0.03125 1
vt 0.34375 0.6875
vt 0.34375 0.71875

# Normal
vn 0 0 -1

# Mesh description
g Batalla3_mesh_0008

# Faces
f 1/1/1 2/2/1 3/3/1 4/4/1
f 5/1/1 6/2/1 7/3/1 8/4/1
f 9/1/1 10/2/1 11/3/1 12/4/1
f 13/1/1 14/2/1 15/3/1 16/4/1
f 17/1/1 18/2/1 19/3/1 20/4/1
f 21/1/1 22/2/1 23/3/1 24/4/1
f 25/5/1 26/6/1 27/7/1 28/8/1
f 29/5/1 30/6/1 31/7/1 32/8/1
f 33/5/1 34/6/1 35/7/1 36/8/1
f 37/5/1 38/6/1 39/7/1 40/8/1
f 41/5/1 42/6/1 43/7/1 44/8/1
f 45/5/1 46/6/1 47/7/1 48/8/1
f 49/5/1 50/6/1 51/7/1 52/8/1
f 53/5/1 54/6/1 55/7/1 56/8/1
f 57/5/1 58/6/1 59/7/1 60/8/1
f 61/5/1 62/6/1 63/7/1 64/8/1
f 65/9/1 66/10/1 67/11/1 68/12/1
f 69/9/1 70/10/1 71/11/1 72/12/1
f 73/5/1 74/6/1 75/7/1 76/8/1
f 77/2/1 78/13/1 79/14/1 80/3/1
f 81/9/1 82/10/1 83/11/1 84/12/1
f 85/5/1 86/6/1 87/7/1 88/8/1
f 89/5/1 90/6/1 91/7/1 92/8/1
f 93/5/1 94/6/1 95/7/1 96/8/1
f 97/5/1 98/6/1 99/7/1 100/8/1
f 101/5/1 102/6/1 103/7/1 104/8/1
f 105/5/1 106/6/1 107/7/1 108/8/1
f 109/5/1 110/6/1 111/7/1 112/8/1
f 113/5/1 114/6/1 115/7/1 116/8/1
f 117/5/1 118/6/1 119/7/1 120/8/1
f 121/5/1 122/6/1 123/7/1 124/8/1
f 125/5/1 126/6/1 127/7/1 128/8/1
f 129/5/1 130/6/1 131/7/1 132/8/1
f 133/5/1 134/6/1 135/7/1 136/8/1
f 137/5/1 138/6/1 139/7/1 140/8/1

