# Tiled2Unity generated file. Do not modify by hand.
# Wavefront file for 'Batalla3_mesh_0004.obj'

# Vertices (Count = 648)
v -640 -16 0
v -656 -16 0
v -656 0 0
v -640 0 0
v -640 -32 0
v -656 -32 0
v -656 -16 0
v -640 -16 0
v -640 -48 0
v -656 -48 0
v -656 -32 0
v -640 -32 0
v -640 -64 0
v -656 -64 0
v -656 -48 0
v -640 -48 0
v -32 -128 0
v -48 -128 0
v -48 -112 0
v -32 -112 0
v -48 -128 0
v -64 -128 0
v -64 -112 0
v -48 -112 0
v -64 -128 0
v -80 -128 0
v -80 -112 0
v -64 -112 0
v -96 -128 0
v -112 -128 0
v -112 -112 0
v -96 -112 0
v -112 -128 0
v -128 -128 0
v -128 -112 0
v -112 -112 0
v -128 -128 0
v -144 -128 0
v -144 -112 0
v -128 -112 0
v -640 -128 0
v -656 -128 0
v -656 -112 0
v -640 -112 0
v -656 -128 0
v -672 -128 0
v -672 -112 0
v -656 -112 0
v -672 -128 0
v -688 -128 0
v -688 -112 0
v -672 -112 0
v -688 -128 0
v -704 -128 0
v -704 -112 0
v -688 -112 0
v -704 -128 0
v -720 -128 0
v -720 -112 0
v -704 -112 0
v -720 -128 0
v -736 -128 0
v -736 -112 0
v -720 -112 0
v -736 -128 0
v -752 -128 0
v -752 -112 0
v -736 -112 0
v -752 -128 0
v -768 -128 0
v -768 -112 0
v -752 -112 0
v -768 -128 0
v -784 -128 0
v -784 -112 0
v -768 -112 0
v -784 -128 0
v -800 -128 0
v -800 -112 0
v -784 -112 0
v -32 -144 0
v -48 -144 0
v -48 -128 0
v -32 -128 0
v -48 -144 0
v -64 -144 0
v -64 -128 0
v -48 -128 0
v -64 -144 0
v -80 -144 0
v -80 -128 0
v -64 -128 0
v -96 -144 0
v -112 -144 0
v -112 -128 0
v -96 -128 0
v -112 -144 0
v -128 -144 0
v -128 -128 0
v -112 -128 0
v -128 -144 0
v -144 -144 0
v -144 -128 0
v -128 -128 0
v -640 -144 0
v -656 -144 0
v -656 -128 0
v -640 -128 0
v -656 -144 0
v -672 -144 0
v -672 -128 0
v -656 -128 0
v -672 -144 0
v -688 -144 0
v -688 -128 0
v -672 -128 0
v -688 -144 0
v -704 -144 0
v -704 -128 0
v -688 -128 0
v -704 -144 0
v -720 -144 0
v -720 -128 0
v -704 -128 0
v -720 -144 0
v -736 -144 0
v -736 -128 0
v -720 -128 0
v -736 -144 0
v -752 -144 0
v -752 -128 0
v -736 -128 0
v -752 -144 0
v -768 -144 0
v -768 -128 0
v -752 -128 0
v -768 -144 0
v -784 -144 0
v -784 -128 0
v -768 -128 0
v -784 -144 0
v -800 -144 0
v -800 -128 0
v -784 -128 0
v -32 -160 0
v -48 -160 0
v -48 -144 0
v -32 -144 0
v -48 -160 0
v -64 -160 0
v -64 -144 0
v -48 -144 0
v -64 -160 0
v -80 -160 0
v -80 -144 0
v -64 -144 0
v -96 -160 0
v -112 -160 0
v -112 -144 0
v -96 -144 0
v -112 -160 0
v -128 -160 0
v -128 -144 0
v -112 -144 0
v -128 -160 0
v -144 -160 0
v -144 -144 0
v -128 -144 0
v -640 -160 0
v -656 -160 0
v -656 -144 0
v -640 -144 0
v -656 -160 0
v -672 -160 0
v -672 -144 0
v -656 -144 0
v -672 -160 0
v -688 -160 0
v -688 -144 0
v -672 -144 0
v -688 -160 0
v -704 -160 0
v -704 -144 0
v -688 -144 0
v -704 -160 0
v -720 -160 0
v -720 -144 0
v -704 -144 0
v -720 -160 0
v -736 -160 0
v -736 -144 0
v -720 -144 0
v -736 -160 0
v -752 -160 0
v -752 -144 0
v -736 -144 0
v -752 -160 0
v -768 -160 0
v -768 -144 0
v -752 -144 0
v -768 -160 0
v -784 -160 0
v -784 -144 0
v -768 -144 0
v -784 -160 0
v -800 -160 0
v -800 -144 0
v -784 -144 0
v -32 -176 0
v -48 -176 0
v -48 -160 0
v -32 -160 0
v -48 -176 0
v -64 -176 0
v -64 -160 0
v -48 -160 0
v -64 -176 0
v -80 -176 0
v -80 -160 0
v -64 -160 0
v -96 -176 0
v -112 -176 0
v -112 -160 0
v -96 -160 0
v -112 -176 0
v -128 -176 0
v -128 -160 0
v -112 -160 0
v -128 -176 0
v -144 -176 0
v -144 -160 0
v -128 -160 0
v -640 -176 0
v -656 -176 0
v -656 -160 0
v -640 -160 0
v -656 -176 0
v -672 -176 0
v -672 -160 0
v -656 -160 0
v -672 -176 0
v -688 -176 0
v -688 -160 0
v -672 -160 0
v -688 -176 0
v -704 -176 0
v -704 -160 0
v -688 -160 0
v -704 -176 0
v -720 -176 0
v -720 -160 0
v -704 -160 0
v -720 -176 0
v -736 -176 0
v -736 -160 0
v -720 -160 0
v -736 -176 0
v -752 -176 0
v -752 -160 0
v -736 -160 0
v -752 -176 0
v -768 -176 0
v -768 -160 0
v -752 -160 0
v -768 -176 0
v -784 -176 0
v -784 -160 0
v -768 -160 0
v -784 -176 0
v -800 -176 0
v -800 -160 0
v -784 -160 0
v -32 -192 0
v -48 -192 0
v -48 -176 0
v -32 -176 0
v -48 -192 0
v -64 -192 0
v -64 -176 0
v -48 -176 0
v -64 -192 0
v -80 -192 0
v -80 -176 0
v -64 -176 0
v -96 -192 0
v -112 -192 0
v -112 -176 0
v -96 -176 0
v -112 -192 0
v -128 -192 0
v -128 -176 0
v -112 -176 0
v -128 -192 0
v -144 -192 0
v -144 -176 0
v -128 -176 0
v -688 -192 0
v -704 -192 0
v -704 -176 0
v -688 -176 0
v -704 -192 0
v -720 -192 0
v -720 -176 0
v -704 -176 0
v -720 -192 0
v -736 -192 0
v -736 -176 0
v -720 -176 0
v -736 -192 0
v -752 -192 0
v -752 -176 0
v -736 -176 0
v -752 -192 0
v -768 -192 0
v -768 -176 0
v -752 -176 0
v -768 -192 0
v -784 -192 0
v -784 -176 0
v -768 -176 0
v -688 -208 0
v -704 -208 0
v -704 -192 0
v -688 -192 0
v -704 -208 0
v -720 -208 0
v -720 -192 0
v -704 -192 0
v -720 -208 0
v -736 -208 0
v -736 -192 0
v -720 -192 0
v -736 -208 0
v -752 -208 0
v -752 -192 0
v -736 -192 0
v -752 -208 0
v -768 -208 0
v -768 -192 0
v -752 -192 0
v -768 -208 0
v -784 -208 0
v -784 -192 0
v -768 -192 0
v -688 -224 0
v -704 -224 0
v -704 -208 0
v -688 -208 0
v -704 -224 0
v -720 -224 0
v -720 -208 0
v -704 -208 0
v -720 -224 0
v -736 -224 0
v -736 -208 0
v -720 -208 0
v -736 -224 0
v -752 -224 0
v -752 -208 0
v -736 -208 0
v -752 -224 0
v -768 -224 0
v -768 -208 0
v -752 -208 0
v -768 -224 0
v -784 -224 0
v -784 -208 0
v -768 -208 0
v -688 -240 0
v -704 -240 0
v -704 -224 0
v -688 -224 0
v -704 -240 0
v -720 -240 0
v -720 -224 0
v -704 -224 0
v -720 -240 0
v -736 -240 0
v -736 -224 0
v -720 -224 0
v -736 -240 0
v -752 -240 0
v -752 -224 0
v -736 -224 0
v -752 -240 0
v -768 -240 0
v -768 -224 0
v -752 -224 0
v -768 -240 0
v -784 -240 0
v -784 -224 0
v -768 -224 0
v -368 -384 0
v -384 -384 0
v -384 -368 0
v -368 -368 0
v -384 -384 0
v -400 -384 0
v -400 -368 0
v -384 -368 0
v -272 -400 0
v -288 -400 0
v -288 -384 0
v -272 -384 0
v -288 -400 0
v -304 -400 0
v -304 -384 0
v -288 -384 0
v -480 -432 0
v -496 -432 0
v -496 -416 0
v -480 -416 0
v -496 -432 0
v -512 -432 0
v -512 -416 0
v -496 -416 0
v -512 -432 0
v -528 -432 0
v -528 -416 0
v -512 -416 0
v -240 -448 0
v -256 -448 0
v -256 -432 0
v -240 -432 0
v -256 -448 0
v -272 -448 0
v -272 -432 0
v -256 -432 0
v -272 -448 0
v -288 -448 0
v -288 -432 0
v -272 -432 0
v -416 -448 0
v -432 -448 0
v -432 -432 0
v -416 -432 0
v -432 -448 0
v -448 -448 0
v -448 -432 0
v -432 -432 0
v -448 -448 0
v -464 -448 0
v -464 -432 0
v -448 -432 0
v -480 -448 0
v -496 -448 0
v -496 -432 0
v -480 -432 0
v -496 -448 0
v -512 -448 0
v -512 -432 0
v -496 -432 0
v -512 -448 0
v -528 -448 0
v -528 -432 0
v -512 -432 0
v -240 -464 0
v -256 -464 0
v -256 -448 0
v -240 -448 0
v -256 -464 0
v -272 -464 0
v -272 -448 0
v -256 -448 0
v -272 -464 0
v -288 -464 0
v -288 -448 0
v -272 -448 0
v -352 -464 0
v -368 -464 0
v -368 -448 0
v -352 -448 0
v -368 -464 0
v -384 -464 0
v -384 -448 0
v -368 -448 0
v -384 -464 0
v -400 -464 0
v -400 -448 0
v -384 -448 0
v -416 -464 0
v -432 -464 0
v -432 -448 0
v -416 -448 0
v -432 -464 0
v -448 -464 0
v -448 -448 0
v -432 -448 0
v -448 -464 0
v -464 -464 0
v -464 -448 0
v -448 -448 0
v -480 -464 0
v -496 -464 0
v -496 -448 0
v -480 -448 0
v -496 -464 0
v -512 -464 0
v -512 -448 0
v -496 -448 0
v -512 -464 0
v -528 -464 0
v -528 -448 0
v -512 -448 0
v -240 -480 0
v -256 -480 0
v -256 -464 0
v -240 -464 0
v -256 -480 0
v -272 -480 0
v -272 -464 0
v -256 -464 0
v -272 -480 0
v -288 -480 0
v -288 -464 0
v -272 -464 0
v -352 -480 0
v -368 -480 0
v -368 -464 0
v -352 -464 0
v -368 -480 0
v -384 -480 0
v -384 -464 0
v -368 -464 0
v -384 -480 0
v -400 -480 0
v -400 -464 0
v -384 -464 0
v -416 -480 0
v -432 -480 0
v -432 -464 0
v -416 -464 0
v -432 -480 0
v -448 -480 0
v -448 -464 0
v -432 -464 0
v -448 -480 0
v -464 -480 0
v -464 -464 0
v -448 -464 0
v -480 -480 0
v -496 -480 0
v -496 -464 0
v -480 -464 0
v -496 -480 0
v -512 -480 0
v -512 -464 0
v -496 -464 0
v -512 -480 0
v -528 -480 0
v -528 -464 0
v -512 -464 0
v -240 -496 0
v -256 -496 0
v -256 -480 0
v -240 -480 0
v -256 -496 0
v -272 -496 0
v -272 -480 0
v -256 -480 0
v -272 -496 0
v -288 -496 0
v -288 -480 0
v -272 -480 0
v -352 -496 0
v -368 -496 0
v -368 -480 0
v -352 -480 0
v -368 -496 0
v -384 -496 0
v -384 -480 0
v -368 -480 0
v -384 -496 0
v -400 -496 0
v -400 -480 0
v -384 -480 0
v -416 -496 0
v -432 -496 0
v -432 -480 0
v -416 -480 0
v -432 -496 0
v -448 -496 0
v -448 -480 0
v -432 -480 0
v -448 -496 0
v -464 -496 0
v -464 -480 0
v -448 -480 0
v -480 -496 0
v -496 -496 0
v -496 -480 0
v -480 -480 0
v -496 -496 0
v -512 -496 0
v -512 -480 0
v -496 -480 0
v -512 -496 0
v -528 -496 0
v -528 -480 0
v -512 -480 0
v -240 -512 0
v -256 -512 0
v -256 -496 0
v -240 -496 0
v -256 -512 0
v -272 -512 0
v -272 -496 0
v -256 -496 0
v -272 -512 0
v -288 -512 0
v -288 -496 0
v -272 -496 0
v -352 -512 0
v -368 -512 0
v -368 -496 0
v -352 -496 0
v -368 -512 0
v -384 -512 0
v -384 -496 0
v -368 -496 0
v -384 -512 0
v -400 -512 0
v -400 -496 0
v -384 -496 0
v -416 -512 0
v -432 -512 0
v -432 -496 0
v -416 -496 0
v -432 -512 0
v -448 -512 0
v -448 -496 0
v -432 -496 0
v -448 -512 0
v -464 -512 0
v -464 -496 0
v -448 -496 0
v -352 -528 0
v -368 -528 0
v -368 -512 0
v -352 -512 0
v -368 -528 0
v -384 -528 0
v -384 -512 0
v -368 -512 0
v -384 -528 0
v -400 -528 0
v -400 -512 0
v -384 -512 0

# Texture cooridinates (Count = 57)
vt 0.34375 0.625
vt 0.375 0.625
vt 0.375 0.65625
vt 0.34375 0.65625
vt 0.34375 0.59375
vt 0.375 0.59375
vt 0.34375 0.5625
vt 0.375 0.5625
vt 0.34375 0.53125
vt 0.375 0.53125
vt 0.28125 0.65625
vt 0.3125 0.65625
vt 0.3125 0.6875
vt 0.28125 0.6875
vt 0.34375 0.6875
vt 0.375 0.6875
vt 0.03125 0.25
vt 0.0625 0.25
vt 0.0625 0.28125
vt 0.03125 0.28125
vt 0.09375 0.25
vt 0.09375 0.28125
vt 0.125 0.25
vt 0.125 0.28125
vt 0.15625 0.25
vt 0.15625 0.28125
vt 0.28125 0.625
vt 0.3125 0.625
vt 0.03125 0.21875
vt 0.0625 0.21875
vt 0.09375 0.21875
vt 0.125 0.21875
vt 0.15625 0.21875
vt 0.28125 0.59375
vt 0.3125 0.59375
vt 0.03125 0.1875
vt 0.0625 0.1875
vt 0.09375 0.1875
vt 0.125 0.1875
vt 0.15625 0.1875
vt 0.28125 0.5625
vt 0.3125 0.5625
vt 0.03125 0.15625
vt 0.0625 0.15625
vt 0.09375 0.15625
vt 0.125 0.15625
vt 0.28125 0.53125
vt 0.3125 0.53125
vt 0 0.78125
vt 0.03125 0.78125
vt 0.03125 0.8125
vt 0 0.8125
vt 0.0625 0.78125
vt 0.0625 0.8125
vt 0.03125 0.84375
vt 0 0.84375
vt 0.0625 0.84375

# Normal
vn 0 0 -1

# Mesh description
g Batalla3_mesh_0004

# Faces
f 1/1/1 2/2/1 3/3/1 4/4/1
f 5/5/1 6/6/1 7/2/1 8/1/1
f 9/7/1 10/8/1 11/6/1 12/5/1
f 13/9/1 14/10/1 15/8/1 16/7/1
f 17/11/1 18/12/1 19/13/1 20/14/1
f 21/12/1 22/4/1 23/15/1 24/13/1
f 25/4/1 26/3/1 27/16/1 28/15/1
f 29/11/1 30/12/1 31/13/1 32/14/1
f 33/12/1 34/4/1 35/15/1 36/13/1
f 37/4/1 38/3/1 39/16/1 40/15/1
f 41/17/1 42/18/1 43/19/1 44/20/1
f 45/18/1 46/21/1 47/22/1 48/19/1
f 49/21/1 50/23/1 51/24/1 52/22/1
f 53/23/1 54/25/1 55/26/1 56/24/1
f 57/17/1 58/18/1 59/19/1 60/20/1
f 61/18/1 62/21/1 63/22/1 64/19/1
f 65/21/1 66/23/1 67/24/1 68/22/1
f 69/23/1 70/25/1 71/26/1 72/24/1
f 73/17/1 74/18/1 75/19/1 76/20/1
f 77/18/1 78/21/1 79/22/1 80/19/1
f 81/27/1 82/28/1 83/12/1 84/11/1
f 85/28/1 86/1/1 87/4/1 88/12/1
f 89/1/1 90/2/1 91/3/1 92/4/1
f 93/27/1 94/28/1 95/12/1 96/11/1
f 97/28/1 98/1/1 99/4/1 100/12/1
f 101/1/1 102/2/1 103/3/1 104/4/1
f 105/29/1 106/30/1 107/18/1 108/17/1
f 109/30/1 110/31/1 111/21/1 112/18/1
f 113/31/1 114/32/1 115/23/1 116/21/1
f 117/32/1 118/33/1 119/25/1 120/23/1
f 121/29/1 122/30/1 123/18/1 124/17/1
f 125/30/1 126/31/1 127/21/1 128/18/1
f 129/31/1 130/32/1 131/23/1 132/21/1
f 133/32/1 134/33/1 135/25/1 136/23/1
f 137/29/1 138/30/1 139/18/1 140/17/1
f 141/30/1 142/31/1 143/21/1 144/18/1
f 145/34/1 146/35/1 147/28/1 148/27/1
f 149/35/1 150/5/1 151/1/1 152/28/1
f 153/5/1 154/6/1 155/2/1 156/1/1
f 157/34/1 158/35/1 159/28/1 160/27/1
f 161/35/1 162/5/1 163/1/1 164/28/1
f 165/5/1 166/6/1 167/2/1 168/1/1
f 169/36/1 170/37/1 171/30/1 172/29/1
f 173/37/1 174/38/1 175/31/1 176/30/1
f 177/38/1 178/39/1 179/32/1 180/31/1
f 181/39/1 182/40/1 183/33/1 184/32/1
f 185/36/1 186/37/1 187/30/1 188/29/1
f 189/37/1 190/38/1 191/31/1 192/30/1
f 193/38/1 194/39/1 195/32/1 196/31/1
f 197/39/1 198/40/1 199/33/1 200/32/1
f 201/36/1 202/37/1 203/30/1 204/29/1
f 205/37/1 206/38/1 207/31/1 208/30/1
f 209/41/1 210/42/1 211/35/1 212/34/1
f 213/42/1 214/7/1 215/5/1 216/35/1
f 217/7/1 218/8/1 219/6/1 220/5/1
f 221/41/1 222/42/1 223/35/1 224/34/1
f 225/42/1 226/7/1 227/5/1 228/35/1
f 229/7/1 230/8/1 231/6/1 232/5/1
f 233/43/1 234/44/1 235/37/1 236/36/1
f 237/44/1 238/45/1 239/38/1 240/37/1
f 241/45/1 242/46/1 243/39/1 244/38/1
f 245/11/1 246/12/1 247/13/1 248/14/1
f 249/12/1 250/4/1 251/15/1 252/13/1
f 253/4/1 254/3/1 255/16/1 256/15/1
f 257/11/1 258/12/1 259/13/1 260/14/1
f 261/12/1 262/4/1 263/15/1 264/13/1
f 265/4/1 266/3/1 267/16/1 268/15/1
f 269/44/1 270/45/1 271/38/1 272/37/1
f 273/47/1 274/48/1 275/42/1 276/41/1
f 277/48/1 278/9/1 279/7/1 280/42/1
f 281/9/1 282/10/1 283/8/1 284/7/1
f 285/47/1 286/48/1 287/42/1 288/41/1
f 289/48/1 290/9/1 291/7/1 292/42/1
f 293/9/1 294/10/1 295/8/1 296/7/1
f 297/27/1 298/28/1 299/12/1 300/11/1
f 301/28/1 302/1/1 303/4/1 304/12/1
f 305/1/1 306/2/1 307/3/1 308/4/1
f 309/27/1 310/28/1 311/12/1 312/11/1
f 313/28/1 314/1/1 315/4/1 316/12/1
f 317/1/1 318/2/1 319/3/1 320/4/1
f 321/34/1 322/35/1 323/28/1 324/27/1
f 325/35/1 326/5/1 327/1/1 328/28/1
f 329/5/1 330/6/1 331/2/1 332/1/1
f 333/34/1 334/35/1 335/28/1 336/27/1
f 337/35/1 338/5/1 339/1/1 340/28/1
f 341/5/1 342/6/1 343/2/1 344/1/1
f 345/41/1 346/42/1 347/35/1 348/34/1
f 349/42/1 350/7/1 351/5/1 352/35/1
f 353/7/1 354/8/1 355/6/1 356/5/1
f 357/41/1 358/42/1 359/35/1 360/34/1
f 361/42/1 362/7/1 363/5/1 364/35/1
f 365/7/1 366/8/1 367/6/1 368/5/1
f 369/47/1 370/48/1 371/42/1 372/41/1
f 373/48/1 374/9/1 375/7/1 376/42/1
f 377/9/1 378/10/1 379/8/1 380/7/1
f 381/47/1 382/48/1 383/42/1 384/41/1
f 385/48/1 386/9/1 387/7/1 388/42/1
f 389/9/1 390/10/1 391/8/1 392/7/1
f 393/49/1 394/50/1 395/51/1 396/52/1
f 397/50/1 398/53/1 399/54/1 400/51/1
f 401/52/1 402/51/1 403/55/1 404/56/1
f 405/51/1 406/54/1 407/57/1 408/55/1
f 409/11/1 410/12/1 411/13/1 412/14/1
f 413/12/1 414/4/1 415/15/1 416/13/1
f 417/4/1 418/3/1 419/16/1 420/15/1
f 421/11/1 422/12/1 423/13/1 424/14/1
f 425/12/1 426/4/1 427/15/1 428/13/1
f 429/4/1 430/3/1 431/16/1 432/15/1
f 433/11/1 434/12/1 435/13/1 436/14/1
f 437/12/1 438/4/1 439/15/1 440/13/1
f 441/4/1 442/3/1 443/16/1 444/15/1
f 445/27/1 446/28/1 447/12/1 448/11/1
f 449/28/1 450/1/1 451/4/1 452/12/1
f 453/1/1 454/2/1 455/3/1 456/4/1
f 457/27/1 458/28/1 459/12/1 460/11/1
f 461/28/1 462/1/1 463/4/1 464/12/1
f 465/1/1 466/2/1 467/3/1 468/4/1
f 469/11/1 470/12/1 471/13/1 472/14/1
f 473/12/1 474/4/1 475/15/1 476/13/1
f 477/4/1 478/3/1 479/16/1 480/15/1
f 481/27/1 482/28/1 483/12/1 484/11/1
f 485/28/1 486/1/1 487/4/1 488/12/1
f 489/1/1 490/2/1 491/3/1 492/4/1
f 493/34/1 494/35/1 495/28/1 496/27/1
f 497/35/1 498/5/1 499/1/1 500/28/1
f 501/5/1 502/6/1 503/2/1 504/1/1
f 505/34/1 506/35/1 507/28/1 508/27/1
f 509/35/1 510/5/1 511/1/1 512/28/1
f 513/5/1 514/6/1 515/2/1 516/1/1
f 517/27/1 518/28/1 519/12/1 520/11/1
f 521/28/1 522/1/1 523/4/1 524/12/1
f 525/1/1 526/2/1 527/3/1 528/4/1
f 529/34/1 530/35/1 531/28/1 532/27/1
f 533/35/1 534/5/1 535/1/1 536/28/1
f 537/5/1 538/6/1 539/2/1 540/1/1
f 541/41/1 542/42/1 543/35/1 544/34/1
f 545/42/1 546/7/1 547/5/1 548/35/1
f 549/7/1 550/8/1 551/6/1 552/5/1
f 553/41/1 554/42/1 555/35/1 556/34/1
f 557/42/1 558/7/1 559/5/1 560/35/1
f 561/7/1 562/8/1 563/6/1 564/5/1
f 565/34/1 566/35/1 567/28/1 568/27/1
f 569/35/1 570/5/1 571/1/1 572/28/1
f 573/5/1 574/6/1 575/2/1 576/1/1
f 577/41/1 578/42/1 579/35/1 580/34/1
f 581/42/1 582/7/1 583/5/1 584/35/1
f 585/7/1 586/8/1 587/6/1 588/5/1
f 589/47/1 590/48/1 591/42/1 592/41/1
f 593/48/1 594/9/1 595/7/1 596/42/1
f 597/9/1 598/10/1 599/8/1 600/7/1
f 601/47/1 602/48/1 603/42/1 604/41/1
f 605/48/1 606/9/1 607/7/1 608/42/1
f 609/9/1 610/10/1 611/8/1 612/7/1
f 613/41/1 614/42/1 615/35/1 616/34/1
f 617/42/1 618/7/1 619/5/1 620/35/1
f 621/7/1 622/8/1 623/6/1 624/5/1
f 625/47/1 626/48/1 627/42/1 628/41/1
f 629/48/1 630/9/1 631/7/1 632/42/1
f 633/9/1 634/10/1 635/8/1 636/7/1
f 637/47/1 638/48/1 639/42/1 640/41/1
f 641/48/1 642/9/1 643/7/1 644/42/1
f 645/9/1 646/10/1 647/8/1 648/7/1

