# Tiled2Unity generated file. Do not modify by hand.
# Wavefront file for 'Mapamundi_mesh_0006.obj'

# Vertices (Count = 308)
v -784 -192 0
v -800 -192 0
v -800 -176 0
v -784 -176 0
v -800 -192 0
v -816 -192 0
v -816 -176 0
v -800 -176 0
v -816 -192 0
v -832 -192 0
v -832 -176 0
v -816 -176 0
v -832 -192 0
v -848 -192 0
v -848 -176 0
v -832 -176 0
v -784 -208 0
v -800 -208 0
v -800 -192 0
v -784 -192 0
v -832 -208 0
v -848 -208 0
v -848 -192 0
v -832 -192 0
v -848 -208 0
v -864 -208 0
v -864 -192 0
v -848 -192 0
v -784 -224 0
v -800 -224 0
v -800 -208 0
v -784 -208 0
v -848 -224 0
v -864 -224 0
v -864 -208 0
v -848 -208 0
v -864 -224 0
v -880 -224 0
v -880 -208 0
v -864 -208 0
v -880 -224 0
v -896 -224 0
v -896 -208 0
v -880 -208 0
v -896 -224 0
v -912 -224 0
v -912 -208 0
v -896 -208 0
v -912 -224 0
v -928 -224 0
v -928 -208 0
v -912 -208 0
v -928 -224 0
v -944 -224 0
v -944 -208 0
v -928 -208 0
v -944 -224 0
v -960 -224 0
v -960 -208 0
v -944 -208 0
v -960 -224 0
v -976 -224 0
v -976 -208 0
v -960 -208 0
v -784 -240 0
v -800 -240 0
v -800 -224 0
v -784 -224 0
v -960 -240 0
v -976 -240 0
v -976 -224 0
v -960 -224 0
v -784 -256 0
v -800 -256 0
v -800 -240 0
v -784 -240 0
v -960 -256 0
v -976 -256 0
v -976 -240 0
v -960 -240 0
v -768 -272 0
v -784 -272 0
v -784 -256 0
v -768 -256 0
v -784 -272 0
v -800 -272 0
v -800 -256 0
v -784 -256 0
v -960 -272 0
v -976 -272 0
v -976 -256 0
v -960 -256 0
v -768 -288 0
v -784 -288 0
v -784 -272 0
v -768 -272 0
v -960 -288 0
v -976 -288 0
v -976 -272 0
v -960 -272 0
v -768 -304 0
v -784 -304 0
v -784 -288 0
v -768 -288 0
v -960 -304 0
v -976 -304 0
v -976 -288 0
v -960 -288 0
v -768 -320 0
v -784 -320 0
v -784 -304 0
v -768 -304 0
v -960 -320 0
v -976 -320 0
v -976 -304 0
v -960 -304 0
v -768 -336 0
v -784 -336 0
v -784 -320 0
v -768 -320 0
v -784 -336 0
v -800 -336 0
v -800 -320 0
v -784 -320 0
v -800 -336 0
v -816 -336 0
v -816 -320 0
v -800 -320 0
v -816 -336 0
v -832 -336 0
v -832 -320 0
v -816 -320 0
v -832 -336 0
v -848 -336 0
v -848 -320 0
v -832 -320 0
v -848 -336 0
v -864 -336 0
v -864 -320 0
v -848 -320 0
v -880 -336 0
v -896 -336 0
v -896 -320 0
v -880 -320 0
v -896 -336 0
v -912 -336 0
v -912 -320 0
v -896 -320 0
v -912 -336 0
v -928 -336 0
v -928 -320 0
v -912 -320 0
v -928 -336 0
v -944 -336 0
v -944 -320 0
v -928 -320 0
v -944 -336 0
v -960 -336 0
v -960 -320 0
v -944 -320 0
v -960 -336 0
v -976 -336 0
v -976 -320 0
v -960 -320 0
v -768 -912 0
v -784 -912 0
v -784 -896 0
v -768 -896 0
v -784 -912 0
v -800 -912 0
v -800 -896 0
v -784 -896 0
v -800 -912 0
v -816 -912 0
v -816 -896 0
v -800 -896 0
v -816 -912 0
v -832 -912 0
v -832 -896 0
v -816 -896 0
v -832 -912 0
v -848 -912 0
v -848 -896 0
v -832 -896 0
v -848 -912 0
v -864 -912 0
v -864 -896 0
v -848 -896 0
v -768 -928 0
v -784 -928 0
v -784 -912 0
v -768 -912 0
v -848 -928 0
v -864 -928 0
v -864 -912 0
v -848 -912 0
v -768 -944 0
v -784 -944 0
v -784 -928 0
v -768 -928 0
v -832 -944 0
v -848 -944 0
v -848 -928 0
v -832 -928 0
v -848 -944 0
v -864 -944 0
v -864 -928 0
v -848 -928 0
v -816 -960 0
v -832 -960 0
v -832 -944 0
v -816 -944 0
v -832 -960 0
v -848 -960 0
v -848 -944 0
v -832 -944 0
v -496 -976 0
v -512 -976 0
v -512 -960 0
v -496 -960 0
v -512 -976 0
v -528 -976 0
v -528 -960 0
v -512 -960 0
v -544 -976 0
v -560 -976 0
v -560 -960 0
v -544 -960 0
v -560 -976 0
v -576 -976 0
v -576 -960 0
v -560 -960 0
v -768 -976 0
v -784 -976 0
v -784 -960 0
v -768 -960 0
v -800 -976 0
v -816 -976 0
v -816 -960 0
v -800 -960 0
v -816 -976 0
v -832 -976 0
v -832 -960 0
v -816 -960 0
v -496 -992 0
v -512 -992 0
v -512 -976 0
v -496 -976 0
v -560 -992 0
v -576 -992 0
v -576 -976 0
v -560 -976 0
v -768 -992 0
v -784 -992 0
v -784 -976 0
v -768 -976 0
v -784 -992 0
v -800 -992 0
v -800 -976 0
v -784 -976 0
v -800 -992 0
v -816 -992 0
v -816 -976 0
v -800 -976 0
v -496 -1008 0
v -512 -1008 0
v -512 -992 0
v -496 -992 0
v -560 -1008 0
v -576 -1008 0
v -576 -992 0
v -560 -992 0
v -576 -1008 0
v -592 -1008 0
v -592 -992 0
v -576 -992 0
v -496 -1024 0
v -512 -1024 0
v -512 -1008 0
v -496 -1008 0
v -576 -1024 0
v -592 -1024 0
v -592 -1008 0
v -576 -1008 0
v -496 -1040 0
v -512 -1040 0
v -512 -1024 0
v -496 -1024 0
v -512 -1040 0
v -528 -1040 0
v -528 -1024 0
v -512 -1024 0
v -528 -1040 0
v -544 -1040 0
v -544 -1024 0
v -528 -1024 0
v -544 -1040 0
v -560 -1040 0
v -560 -1024 0
v -544 -1024 0
v -560 -1040 0
v -576 -1040 0
v -576 -1024 0
v -560 -1024 0
v -576 -1040 0
v -592 -1040 0
v -592 -1024 0
v -576 -1024 0

# Texture cooridinates (Count = 26)
vt 0.625 0.4871795
vt 0.6875 0.4871795
vt 0.6875 0.5128205
vt 0.625 0.5128205
vt 0.875 0.4871795
vt 0.9375 0.4871795
vt 0.9375 0.5128205
vt 0.875 0.5128205
vt 0.75 0.4871795
vt 0.8125 0.4871795
vt 0.8125 0.5128205
vt 0.75 0.5128205
vt 0.5625 0.4615384
vt 0.625 0.4615384
vt 0.5625 0.4871795
vt 0.625 0.4358974
vt 0.6875 0.4358974
vt 0.6875 0.4615384
vt 0.75 0.4358974
vt 0.8125 0.4358974
vt 0.8125 0.4615384
vt 0.75 0.4615384
vt 1 0.4871795
vt 1 0.5128205
vt 0.5625 0.4358974
vt 0.5625 0.5128205

# Normal
vn 0 0 -1

# Mesh description
g Mapamundi_mesh_0006

# Faces
f 1/1/1 2/2/1 3/3/1 4/4/1
f 5/5/1 6/6/1 7/7/1 8/8/1
f 9/5/1 10/6/1 11/7/1 12/8/1
f 13/9/1 14/10/1 15/11/1 16/12/1
f 17/13/1 18/14/1 19/1/1 20/15/1
f 21/16/1 22/17/1 23/18/1 24/14/1
f 25/9/1 26/10/1 27/11/1 28/12/1
f 29/13/1 30/14/1 31/1/1 32/15/1
f 33/16/1 34/17/1 35/18/1 36/14/1
f 37/5/1 38/6/1 39/7/1 40/8/1
f 41/5/1 42/6/1 43/7/1 44/8/1
f 45/5/1 46/6/1 47/7/1 48/8/1
f 49/5/1 50/6/1 51/7/1 52/8/1
f 53/5/1 54/6/1 55/7/1 56/8/1
f 57/5/1 58/6/1 59/7/1 60/8/1
f 61/9/1 62/10/1 63/11/1 64/12/1
f 65/13/1 66/14/1 67/1/1 68/15/1
f 69/13/1 70/14/1 71/1/1 72/15/1
f 73/13/1 74/14/1 75/1/1 76/15/1
f 77/13/1 78/14/1 79/1/1 80/15/1
f 81/1/1 82/2/1 83/3/1 84/4/1
f 85/19/1 86/20/1 87/21/1 88/22/1
f 89/13/1 90/14/1 91/1/1 92/15/1
f 93/13/1 94/14/1 95/1/1 96/15/1
f 97/13/1 98/14/1 99/1/1 100/15/1
f 101/13/1 102/14/1 103/1/1 104/15/1
f 105/13/1 106/14/1 107/1/1 108/15/1
f 109/13/1 110/14/1 111/1/1 112/15/1
f 113/13/1 114/14/1 115/1/1 116/15/1
f 117/16/1 118/17/1 119/18/1 120/14/1
f 121/5/1 122/6/1 123/7/1 124/8/1
f 125/5/1 126/6/1 127/7/1 128/8/1
f 129/5/1 130/6/1 131/7/1 132/8/1
f 133/5/1 134/6/1 135/7/1 136/8/1
f 137/6/1 138/23/1 139/24/1 140/7/1
f 141/10/1 142/5/1 143/8/1 144/11/1
f 145/5/1 146/6/1 147/7/1 148/8/1
f 149/5/1 150/6/1 151/7/1 152/8/1
f 153/5/1 154/6/1 155/7/1 156/8/1
f 157/5/1 158/6/1 159/7/1 160/8/1
f 161/19/1 162/20/1 163/21/1 164/22/1
f 165/1/1 166/2/1 167/3/1 168/4/1
f 169/5/1 170/6/1 171/7/1 172/8/1
f 173/5/1 174/6/1 175/7/1 176/8/1
f 177/5/1 178/6/1 179/7/1 180/8/1
f 181/5/1 182/6/1 183/7/1 184/8/1
f 185/9/1 186/10/1 187/11/1 188/12/1
f 189/13/1 190/14/1 191/1/1 192/15/1
f 193/13/1 194/14/1 195/1/1 196/15/1
f 197/25/1 198/16/1 199/14/1 200/13/1
f 201/1/1 202/2/1 203/3/1 204/4/1
f 205/19/1 206/20/1 207/21/1 208/22/1
f 209/1/1 210/2/1 211/3/1 212/4/1
f 213/19/1 214/20/1 215/21/1 216/22/1
f 217/1/1 218/2/1 219/3/1 220/4/1
f 221/6/1 222/23/1 223/24/1 224/7/1
f 225/10/1 226/5/1 227/8/1 228/11/1
f 229/9/1 230/10/1 231/11/1 232/12/1
f 233/15/1 234/1/1 235/4/1 236/26/1
f 237/1/1 238/2/1 239/3/1 240/4/1
f 241/19/1 242/20/1 243/21/1 244/22/1
f 245/13/1 246/14/1 247/1/1 248/15/1
f 249/13/1 250/14/1 251/1/1 252/15/1
f 253/16/1 254/17/1 255/18/1 256/14/1
f 257/5/1 258/6/1 259/7/1 260/8/1
f 261/19/1 262/20/1 263/21/1 264/22/1
f 265/13/1 266/14/1 267/1/1 268/15/1
f 269/16/1 270/17/1 271/18/1 272/14/1
f 273/9/1 274/10/1 275/11/1 276/12/1
f 277/13/1 278/14/1 279/1/1 280/15/1
f 281/13/1 282/14/1 283/1/1 284/15/1
f 285/16/1 286/17/1 287/18/1 288/14/1
f 289/5/1 290/6/1 291/7/1 292/8/1
f 293/5/1 294/6/1 295/7/1 296/8/1
f 297/5/1 298/6/1 299/7/1 300/8/1
f 301/5/1 302/6/1 303/7/1 304/8/1
f 305/19/1 306/20/1 307/21/1 308/22/1

